[DISPATCHER] Modo selecionado: CPU (FFmpeg + screenshot paralelo)
[SERVER] Servidor de desenvolvimento ativo em http://127.0.0.1:8080
[CPU-RECORDER] Iniciando modo CPU com 4 workers paralelos
[CPU-RECORDER] Resolução de captura: 1280x720 → upscale 1920x1080
[CPU-RECORDER] Config: 60s | 25 FPS | 1500 frames | 4 workers
[CPU-RECORDER] Distribuindo 1500 frames em 4 workers...
[CPU-RECORDER] Worker 0: frames 0-374
[CPU-RECORDER] Worker 1: frames 375-749
[CPU-RECORDER] Worker 2: frames 750-1124
[CPU-RECORDER] Worker 3: frames 1125-1499
[BROWSER ERR] Failed to load resource: the server responded with a status of 404 (Not Found)
[BROWSER ERR] Failed to load resource: the server responded with a status of 404 (Not Found)
[BROWSER ERR] Failed to load resource: the server responded with a status of 404 (Not Found)
[CPU-RECORDER] Renderização concluída em 408.3s. Iniciando encoding com FFmpeg...
ffmpeg version 6.1.1-3ubuntu5 Copyright (c) 2000-2023 the FFmpeg developers
  built with gcc 13 (Ubuntu 13.2.0-23ubuntu3)
  configuration: --prefix=/usr --extra-version=3ubuntu5 --toolchain=hardened --libdir=/usr/lib/x86_64-linux-gnu --incdir=/usr/include/x86_64-linux-gnu --arch=amd64 --enable-gpl --disable-stripping --disable-omx --enable-gnutls --enable-libaom --enable-libass --enable-libbs2b --enable-libcaca --enable-libcdio --enable-libcodec2 --enable-libdav1d --enable-libflite --enable-libfontconfig --enable-libfreetype --enable-libfribidi --enable-libglslang --enable-libgme --enable-libgsm --enable-libharfbuzz --enable-libmp3lame --enable-libmysofa --enable-libopenjpeg --enable-libopenmpt --enable-libopus --enable-librubberband --enable-libshine --enable-libsnappy --enable-libsoxr --enable-libspeex --enable-libtheora --enable-libtwolame --enable-libvidstab --enable-libvorbis --enable-libvpx --enable-libwebp --enable-libx265 --enable-libxml2 --enable-libxvid --enable-libzimg --enable-openal --enable-opencl --enable-opengl --disable-sndio --enable-libvpl --disable-libmfx --enable-libdc1394 --enable-libdrm --enable-libiec61883 --enable-chromaprint --enable-frei0r --enable-ladspa --enable-libbluray --enable-libjack --enable-libpulse --enable-librabbitmq --enable-librist --enable-libsrt --enable-libssh --enable-libsvtav1 --enable-libx264 --enable-libzmq --enable-libzvbi --enable-lv2 --enable-sdl2 --enable-libplacebo --enable-librav1e --enable-pocketsphinx --enable-librsvg --enable-libjxl --enable-shared
  libavutil      58. 29.100 / 58. 29.100
  libavcodec     60. 31.102 / 60. 31.102
  libavformat    60. 16.100 / 60. 16.100
  libavdevice    60.  3.100 / 60.  3.100
  libavfilter     9. 12.100 /  9. 12.100
  libswscale      7.  5.100 /  7.  5.100
  libswresample   4. 12.100 /  4. 12.100
  libpostproc    57.  3.100 / 57.  3.100
Input #0, image2pipe, from 'pipe:0':
  Duration: N/A, bitrate: N/A
  Stream #0:0: Video: mjpeg (Baseline), yuvj420p(pc, bt470bg/unknown/unknown), 1280x720 [SAR 1:1 DAR 16:9], 25 fps, 25 tbr, 25 tbn
Stream mapping:
  Stream #0:0 -> #0:0 (mjpeg (native) -> h264 (libx264))
[swscaler @ 0x55a765e3c540] deprecated pixel format used, make sure you did set range correctly
[swscaler @ 0x55a765f13a40] deprecated pixel format used, make sure you did set range correctly
    Last message repeated 2 times
[libx264 @ 0x55a7659b7180] using SAR=1/1
[libx264 @ 0x55a7659b7180] using cpu capabilities: MMX2 SSE2Fast SSSE3 SSE4.2 AVX FMA3 BMI2 AVX2
[libx264 @ 0x55a7659b7180] profile Constrained Baseline, level 4.0, 4:2:0, 8-bit
[libx264 @ 0x55a7659b7180] 264 - core 164 r3108 31e19f9 - H.264/MPEG-4 AVC codec - Copyleft 2003-2023 - http://www.videolan.org/x264.html - options: cabac=0 ref=1 deblock=0:0:0 analyse=0:0 me=dia subme=0 psy=1 psy_rd=1.00:0.00 mixed_ref=0 me_range=16 chroma_me=1 trellis=0 8x8dct=0 cqm=0 deadzone=21,11 fast_pskip=1 chroma_qp_offset=0 threads=6 lookahead_threads=1 sliced_threads=0 nr=0 decimate=1 interlaced=0 bluray_compat=0 constrained_intra=0 bframes=0 weightp=0 keyint=250 keyint_min=25 scenecut=0 intra_refresh=0 rc=crf mbtree=0 crf=22.0 qcomp=0.60 qpmin=0 qpmax=69 qpstep=4 ip_ratio=1.40 aq=0
Output #0, mp4, to '/app/pipeline/sync_drive/exports/guerra_fria.mp4':
  Metadata:
    encoder         : Lavf60.16.100
  Stream #0:0: Video: h264 (avc1 / 0x31637661), yuv420p(tv, bt470bg/unknown/unknown, progressive), 1920x1080 [SAR 1:1 DAR 16:9], q=2-31, 25 fps, 12800 tbn
    Metadata:
      encoder         : Lavc60.31.102 libx264
    Side data:
      cpb: bitrate max/min/avg: 0/0/0 buffer size: 0 vbv_delay: N/A
frame=    0 fps=0.0 q=0.0 size=       0kB time=N/A bitrate=N/A speed=N/A    frame=   46 fps=0.0 q=14.0 size=    2304kB time=00:00:01.84 bitrate=10258.0kbits/s speed=3.66x    frame=  120 fps=119 q=12.0 size=    2816kB time=00:00:04.80 bitrate=4806.1kbits/s speed=4.76x    frame=  194 fps=128 q=12.0 size=    3072kB time=00:00:07.76 bitrate=3243.1kbits/s speed=5.13x    frame=  261 fps=129 q=13.0 size=    5376kB time=00:00:10.44 bitrate=4218.4kbits/s speed=5.17x    frame=  329 fps=131 q=12.0 size=    5888kB time=00:00:13.16 bitrate=3665.3kbits/s speed=5.22x    frame=  397 fps=131 q=12.0 size=    6144kB time=00:00:15.88 bitrate=3169.5kbits/s speed=5.25x    frame=  464 fps=132 q=12.0 size=    6400kB time=00:00:18.56 bitrate=2824.8kbits/s speed=5.26x    frame=  533 fps=132 q=12.0 size=    7168kB time=00:00:21.32 bitrate=2754.3kbits/s speed=5.29x    frame=  595 fps=131 q=15.0 size=    9216kB time=00:00:23.80 bitrate=3172.2kbits/s speed=5.25x    frame=  663 fps=132 q=12.0 size=    9472kB time=00:00:26.52 bitrate=2925.9kbits/s speed=5.27x    frame=  733 fps=132 q=12.0 size=    9728kB time=00:00:29.32 bitrate=2718.0kbits/s speed=5.29x    frame=  803 fps=133 q=12.0 size=    9984kB time=00:00:32.12 bitrate=2546.4kbits/s speed=5.31x    frame=  873 fps=133 q=12.0 size=    9984kB time=00:00:34.92 bitrate=2342.2kbits/s speed=5.33x    frame=  943 fps=134 q=12.0 size=   10240kB time=00:00:37.72 bitrate=2223.9kbits/s speed=5.35x    frame= 1012 fps=134 q=12.0 size=   10240kB time=00:00:40.48 bitrate=2072.3kbits/s speed=5.35x    frame= 1079 fps=134 q=12.0 size=   10496kB time=00:00:43.16 bitrate=1992.2kbits/s speed=5.35x    frame= 1147 fps=134 q=12.0 size=   10496kB time=00:00:45.88 bitrate=1874.1kbits/s speed=5.35x    frame= 1214 fps=134 q=12.0 size=   10752kB time=00:00:48.56 bitrate=1813.9kbits/s speed=5.35x    frame= 1280 fps=134 q=12.0 size=   11008kB time=00:00:51.20 bitrate=1761.3kbits/s speed=5.35x    frame= 1346 fps=134 q=12.0 size=   11008kB time=00:00:53.84 bitrate=1674.9kbits/s speed=5.34x    frame= 1408 fps=133 q=12.0 size=   11008kB time=00:00:56.32 bitrate=1601.2kbits/s speed=5.32x    frame= 1472 fps=133 q=12.0 size=   11264kB time=00:00:58.88 bitrate=1567.2kbits/s speed=5.31x    [mp4 @ 0x55a7659b6680] Starting second pass: moving the moov atom to the beginning of the file
[out#0/mp4 @ 0x55a765904440] video:11298kB audio:0kB subtitle:0kB other streams:0kB global headers:0kB muxing overhead: 0.060980%
frame= 1500 fps=133 q=-1.0 Lsize=   11305kB time=00:00:59.96 bitrate=1544.6kbits/s speed=5.32x
[libx264 @ 0x55a7659b7180] frame I:6     Avg QP:12.33  size: 83730
[libx264 @ 0x55a7659b7180] frame P:1494  Avg QP:12.87  size:  7407
[libx264 @ 0x55a7659b7180] mb I  I16..4: 100.0%  0.0%  0.0%
[libx264 @ 0x55a7659b7180] mb P  I16..4:  6.7%  0.0%  0.0%  P16..4:  2.3%  0.0%  0.0%  0.0%  0.0%    skip:91.0%
[libx264 @ 0x55a7659b7180] coded y,uvDC,uvAC intra: 11.1% 6.6% 4.8% inter: 1.3% 1.2% 0.7%
[libx264 @ 0x55a7659b7180] i16 v,h,dc,p: 95%  3%  1%  0%
[libx264 @ 0x55a7659b7180] i8c dc,h,v,p: 59% 36%  4%  0%
[libx264 @ 0x55a7659b7180] kb/s:1542.50
[CPU-RECORDER] ✅ Vídeo gerado com sucesso em 419.7s: /app/pipeline/sync_drive/exports/guerra_fria.mp4
[CPU-RECORDER] Pipeline CPU finalizada e recursos liberados.
